<svg width="22" height="22" viewBox="0 0 22 22" fill="none" xmlns="http://www.w3.org/2000/svg">
<path d="M10.2502 11C10.2502 11.2984 10.3687 11.5845 10.5797 11.7955C10.7907 12.0065 11.0768 12.125 11.3752 12.125C11.6736 12.125 11.9597 12.0065 12.1707 11.7955C12.3817 11.5845 12.5002 11.2984 12.5002 11C12.5002 10.7016 12.3817 10.4155 12.1707 10.2045C11.9597 9.99353 11.6736 9.875 11.3752 9.875C11.0768 9.875 10.7907 9.99353 10.5797 10.2045C10.3687 10.4155 10.2502 10.7016 10.2502 11V11ZM14.9377 11C14.9377 11.2984 15.0562 11.5845 15.2672 11.7955C15.4782 12.0065 15.7643 12.125 16.0627 12.125C16.3611 12.125 16.6472 12.0065 16.8582 11.7955C17.0692 11.5845 17.1877 11.2984 17.1877 11C17.1877 10.7016 17.0692 10.4155 16.8582 10.2045C16.6472 9.99353 16.3611 9.875 16.0627 9.875C15.7643 9.875 15.4782 9.99353 15.2672 10.2045C15.0562 10.4155 14.9377 10.7016 14.9377 11ZM5.56269 11C5.56269 11.2984 5.68122 11.5845 5.8922 11.7955C6.10318 12.0065 6.38933 12.125 6.68769 12.125C6.98606 12.125 7.27221 12.0065 7.48319 11.7955C7.69417 11.5845 7.81269 11.2984 7.81269 11C7.81269 10.7016 7.69417 10.4155 7.48319 10.2045C7.27221 9.99353 6.98606 9.875 6.68769 9.875C6.38933 9.875 6.10318 9.99353 5.8922 10.2045C5.68122 10.4155 5.56269 10.7016 5.56269 11V11ZM21.0596 6.93125C20.5299 5.67266 19.7705 4.54297 18.8025 3.57266C17.8413 2.60796 16.7003 1.84114 15.4439 1.31563C14.1549 0.774219 12.7861 0.5 11.3752 0.5H11.3283C9.90801 0.507031 8.53223 0.788281 7.23848 1.34141C5.99291 1.87232 4.86253 2.64049 3.91035 3.60312C2.95176 4.57109 2.19941 5.69609 1.6791 6.95C1.14004 8.24844 0.868163 9.62891 0.875194 11.0492C0.883147 12.6769 1.26822 14.2806 2.00019 15.7344V19.2969C2.00019 19.5828 2.11378 19.857 2.31597 20.0592C2.51816 20.2614 2.79238 20.375 3.07832 20.375H6.64316C8.09698 21.107 9.70065 21.492 11.3283 21.5H11.3775C12.7814 21.5 14.1432 21.2281 15.4252 20.6961C16.6752 20.1768 17.812 19.419 18.7721 18.4648C19.74 17.5062 20.5018 16.3859 21.0338 15.1367C21.5869 13.843 21.8682 12.4672 21.8752 11.0469C21.8822 9.61953 21.6057 8.23437 21.0596 6.93125V6.93125ZM17.5182 17.1969C15.8752 18.8234 13.6955 19.7188 11.3752 19.7188H11.3354C9.92207 19.7117 8.51816 19.3602 7.27832 18.6992L7.08144 18.5938H3.78144V15.2938L3.67598 15.0969C3.01504 13.857 2.66348 12.4531 2.65644 11.0398C2.64707 8.70313 3.54004 6.50937 5.17832 4.85703C6.81426 3.20469 9.00098 2.29063 11.3377 2.28125H11.3775C12.5494 2.28125 13.6861 2.50859 14.7572 2.95859C15.8025 3.39687 16.74 4.02734 17.5463 4.83359C18.3502 5.6375 18.983 6.57734 19.4213 7.62266C19.876 8.70547 20.1033 9.85391 20.0986 11.0398C20.0846 13.3742 19.1682 15.5609 17.5182 17.1969V17.1969Z" fill="#8C8C8C"/>
</svg>
