<svg width="20" height="20" viewBox="0 0 20 20" fill="none" xmlns="http://www.w3.org/2000/svg">
<path d="M18.6867 4.87422L14.8758 1.06328C14.7 0.8875 14.4844 0.758594 14.25 0.688281V0.625H1.125C0.710156 0.625 0.375 0.960156 0.375 1.375V18.625C0.375 19.0398 0.710156 19.375 1.125 19.375H18.375C18.7898 19.375 19.125 19.0398 19.125 18.625V5.93359C19.125 5.53516 18.968 5.15547 18.6867 4.87422ZM6.75 2.3125H12.75V4.75H6.75V2.3125ZM17.4375 17.6875H2.0625V2.3125H5.25V5.5C5.25 5.91484 5.58516 6.25 6 6.25H13.5C13.9148 6.25 14.25 5.91484 14.25 5.5V2.82344L17.4375 6.01094V17.6875ZM9.75 8.35938C7.88672 8.35938 6.375 9.87109 6.375 11.7344C6.375 13.5977 7.88672 15.1094 9.75 15.1094C11.6133 15.1094 13.125 13.5977 13.125 11.7344C13.125 9.87109 11.6133 8.35938 9.75 8.35938ZM9.75 13.6094C8.71406 13.6094 7.875 12.7703 7.875 11.7344C7.875 10.6984 8.71406 9.85938 9.75 9.85938C10.7859 9.85938 11.625 10.6984 11.625 11.7344C11.625 12.7703 10.7859 13.6094 9.75 13.6094Z" fill="#8C8C8C"/>
</svg>
