<svg width="17" height="20" viewBox="0 0 17 20" fill="none" xmlns="http://www.w3.org/2000/svg">
<path d="M14.1875 13.5625C13.5195 13.5625 12.9031 13.7969 12.4203 14.1883L7.56406 10.675C7.64538 10.2287 7.64538 9.77133 7.56406 9.325L12.4203 5.81172C12.9031 6.20312 13.5195 6.4375 14.1875 6.4375C15.7391 6.4375 17 5.17656 17 3.625C17 2.07344 15.7391 0.8125 14.1875 0.8125C12.6359 0.8125 11.375 2.07344 11.375 3.625C11.375 3.89687 11.4125 4.15703 11.4852 4.40547L6.87266 7.74531C6.18828 6.83828 5.10078 6.25 3.875 6.25C1.80312 6.25 0.125 7.92812 0.125 10C0.125 12.0719 1.80312 13.75 3.875 13.75C5.10078 13.75 6.18828 13.1617 6.87266 12.2547L11.4852 15.5945C11.4125 15.843 11.375 16.1055 11.375 16.375C11.375 17.9266 12.6359 19.1875 14.1875 19.1875C15.7391 19.1875 17 17.9266 17 16.375C17 14.8234 15.7391 13.5625 14.1875 13.5625ZM14.1875 2.40625C14.8602 2.40625 15.4062 2.95234 15.4062 3.625C15.4062 4.29766 14.8602 4.84375 14.1875 4.84375C13.5148 4.84375 12.9688 4.29766 12.9688 3.625C12.9688 2.95234 13.5148 2.40625 14.1875 2.40625ZM3.875 12.0625C2.73828 12.0625 1.8125 11.1367 1.8125 10C1.8125 8.86328 2.73828 7.9375 3.875 7.9375C5.01172 7.9375 5.9375 8.86328 5.9375 10C5.9375 11.1367 5.01172 12.0625 3.875 12.0625ZM14.1875 17.5938C13.5148 17.5938 12.9688 17.0477 12.9688 16.375C12.9688 15.7023 13.5148 15.1562 14.1875 15.1562C14.8602 15.1562 15.4062 15.7023 15.4062 16.375C15.4062 17.0477 14.8602 17.5938 14.1875 17.5938Z" fill="#8C8C8C"/>
</svg>
